<svg width="131" height="24" viewBox="0 0 131 24" fill="none" xmlns="http://www.w3.org/2000/svg">
<path d="M9.73513 19.288C8.02313 19.288 6.47113 18.92 5.07913 18.184C3.70313 17.432 2.61513 16.4 1.81513 15.088C1.03113 13.76 0.639125 12.264 0.639125 10.6C0.639125 8.936 1.03113 7.448 1.81513 6.136C2.61513 4.808 3.70313 3.776 5.07913 3.04C6.47113 2.288 8.03113 1.912 9.75913 1.912C11.2151 1.912 12.5271 2.168 13.6951 2.68C14.8791 3.192 15.8711 3.928 16.6711 4.888L14.1751 7.192C13.0391 5.88 11.6311 5.224 9.95113 5.224C8.91113 5.224 7.98313 5.456 7.16713 5.92C6.35113 6.368 5.71113 7 5.24713 7.816C4.79913 8.632 4.57513 9.56 4.57513 10.6C4.57513 11.64 4.79913 12.568 5.24713 13.384C5.71113 14.2 6.35113 14.84 7.16713 15.304C7.98313 15.752 8.91113 15.976 9.95113 15.976C11.6311 15.976 13.0391 15.312 14.1751 13.984L16.6711 16.288C15.8711 17.264 14.8791 18.008 13.6951 18.52C12.5111 19.032 11.1911 19.288 9.73513 19.288ZM22.6087 7.792C23.0567 7.168 23.6567 6.696 24.4087 6.376C25.1767 6.056 26.0567 5.896 27.0487 5.896V9.352C26.6327 9.32 26.3527 9.304 26.2087 9.304C25.1367 9.304 24.2967 9.608 23.6887 10.216C23.0807 10.808 22.7767 11.704 22.7767 12.904V19H19.0327V6.088H22.6087V7.792ZM42.5362 6.088L36.7042 19.792C36.1122 21.28 35.3762 22.328 34.4962 22.936C33.6322 23.544 32.5842 23.848 31.3522 23.848C30.6802 23.848 30.0162 23.744 29.3602 23.536C28.7042 23.328 28.1682 23.04 27.7522 22.672L29.1202 20.008C29.4082 20.264 29.7362 20.464 30.1042 20.608C30.4882 20.752 30.8642 20.824 31.2322 20.824C31.7442 20.824 32.1602 20.696 32.4802 20.44C32.8002 20.2 33.0882 19.792 33.3442 19.216L33.3922 19.096L27.8002 6.088H31.6642L35.2882 14.848L38.9362 6.088H42.5362ZM51.6959 5.896C52.8959 5.896 53.9839 6.176 54.9599 6.736C55.9519 7.28 56.7279 8.056 57.2879 9.064C57.8479 10.056 58.1279 11.216 58.1279 12.544C58.1279 13.872 57.8479 15.04 57.2879 16.048C56.7279 17.04 55.9519 17.816 54.9599 18.376C53.9839 18.92 52.8959 19.192 51.6959 19.192C50.0479 19.192 48.7519 18.672 47.8079 17.632V23.656H44.0639V6.088H47.6399V7.576C48.5679 6.456 49.9199 5.896 51.6959 5.896ZM51.0479 16.12C52.0079 16.12 52.7919 15.8 53.3999 15.16C54.0239 14.504 54.3359 13.632 54.3359 12.544C54.3359 11.456 54.0239 10.592 53.3999 9.952C52.7919 9.296 52.0079 8.968 51.0479 8.968C50.0879 8.968 49.2959 9.296 48.6719 9.952C48.0639 10.592 47.7599 11.456 47.7599 12.544C47.7599 13.632 48.0639 14.504 48.6719 15.16C49.2959 15.8 50.0879 16.12 51.0479 16.12ZM68.9623 18.376C68.5943 18.648 68.1383 18.856 67.5943 19C67.0663 19.128 66.5063 19.192 65.9143 19.192C64.3783 19.192 63.1863 18.8 62.3383 18.016C61.5063 17.232 61.0903 16.08 61.0903 14.56V9.256H59.0983V6.376H61.0903V3.232H64.8343V6.376H68.0503V9.256H64.8343V14.512C64.8343 15.056 64.9703 15.48 65.2422 15.784C65.5303 16.072 65.9303 16.216 66.4423 16.216C67.0343 16.216 67.5383 16.056 67.9543 15.736L68.9623 18.376ZM76.8095 19.192C75.4495 19.192 74.2255 18.912 73.1375 18.352C72.0655 17.776 71.2255 16.984 70.6175 15.976C70.0095 14.968 69.7055 13.824 69.7055 12.544C69.7055 11.264 70.0095 10.12 70.6175 9.112C71.2255 8.104 72.0655 7.32 73.1375 6.76C74.2255 6.184 75.4495 5.896 76.8095 5.896C78.1695 5.896 79.3855 6.184 80.4575 6.76C81.5295 7.32 82.3695 8.104 82.9775 9.112C83.5855 10.12 83.8895 11.264 83.8895 12.544C83.8895 13.824 83.5855 14.968 82.9775 15.976C82.3695 16.984 81.5295 17.776 80.4575 18.352C79.3855 18.912 78.1695 19.192 76.8095 19.192ZM76.8095 16.12C77.7695 16.12 78.5535 15.8 79.1615 15.16C79.7855 14.504 80.0975 13.632 80.0975 12.544C80.0975 11.456 79.7855 10.592 79.1615 9.952C78.5535 9.296 77.7695 8.968 76.8095 8.968C75.8495 8.968 75.0575 9.296 74.4335 9.952C73.8095 10.592 73.4975 11.456 73.4975 12.544C73.4975 13.632 73.8095 14.504 74.4335 15.16C75.0575 15.8 75.8495 16.12 76.8095 16.12ZM100.725 2.2C102.213 2.2 103.501 2.448 104.589 2.944C105.693 3.44 106.541 4.144 107.133 5.056C107.725 5.968 108.021 7.048 108.021 8.296C108.021 9.528 107.725 10.608 107.133 11.536C106.541 12.448 105.693 13.152 104.589 13.648C103.501 14.128 102.213 14.368 100.725 14.368H97.3409V19H93.4529V2.2H100.725ZM100.509 11.2C101.677 11.2 102.565 10.952 103.173 10.456C103.781 9.944 104.085 9.224 104.085 8.296C104.085 7.352 103.781 6.632 103.173 6.136C102.565 5.624 101.677 5.368 100.509 5.368H97.3409V11.2H100.509ZM110.533 6.088H114.277V19H110.533V6.088ZM112.405 4.288C111.717 4.288 111.157 4.088 110.725 3.688C110.293 3.288 110.077 2.792 110.077 2.2C110.077 1.608 110.293 1.112 110.725 0.711999C111.157 0.311999 111.717 0.111999 112.405 0.111999C113.093 0.111999 113.653 0.303999 114.085 0.688C114.517 1.072 114.733 1.552 114.733 2.128C114.733 2.752 114.517 3.272 114.085 3.688C113.653 4.088 113.093 4.288 112.405 4.288ZM125.959 19L123.127 15.04L120.199 19H116.119L121.087 12.496L116.287 6.088H120.487L123.223 9.856L126.031 6.088H130.015L125.215 12.4L130.207 19H125.959Z" fill="#3772FF"/>
</svg>
