<svg width="106" height="78" viewBox="0 0 106 78" fill="none" xmlns="http://www.w3.org/2000/svg">
<path d="M53.461 59.5789C53.461 65.6872 53.461 71.2598 53.461 77.1281C46.8484 77.1281 40.6664 77.1281 34.3008 77.1281C34.3008 71.6881 34.0569 66.3688 34.442 61.0982C34.566 59.3915 36.0962 57.575 37.4028 56.2087C41.646 51.7757 45.8563 47.2541 50.5512 43.3325C52.6649 41.5678 55.8407 40.4737 58.6313 40.2454C64.3411 39.778 70.1168 40.145 75.8643 40.0894C82.1695 40.0266 86.4197 36.1293 86.4543 30.4893C86.4896 24.9575 82.1405 20.7418 75.9851 20.5982C70.371 20.4672 64.7505 20.5072 59.134 20.5904C55.2226 20.6484 53.6493 22.1927 53.5081 26.0484C53.3896 29.3112 53.4579 32.5803 53.4579 35.8454C53.4579 38.7623 52.0202 40.1458 49.0994 40.1105C45.5723 40.069 42.0437 40.0368 38.5189 40.1247C35.4138 40.2023 33.8852 38.8164 33.9008 35.7035C33.9181 32.3073 33.9479 28.9097 33.8969 25.5136C33.8475 22.2555 35.3628 20.6853 38.6413 20.7261C41.9072 20.7692 45.1747 20.7872 48.4382 20.6931C52.0594 20.588 53.945 18.6468 53.9795 15.0005C54.0069 11.9958 54.0712 8.98871 53.9732 5.9879C53.8783 3.0412 55.3583 1.40354 58.1167 1.4106C66.0721 1.43178 74.1616 0.816081 81.9515 2.03335C97.1139 4.40356 107.253 18.37 105.875 33.4925C104.556 47.9718 91.9594 59.3389 76.8479 59.5578C69.2831 59.6699 61.716 59.5789 53.461 59.5789Z" fill="#3772FF"/>
<path d="M50.52 41.165C50.52 41.165 35.8838 41.2246 30.1363 41.1681C23.8312 41.1054 19.5809 34.8551 19.5464 29.2151C19.5111 23.6833 23.8602 19.4675 30.0155 19.324C35.6297 19.193 41.2502 19.233 46.8667 19.3162C50.7781 19.3742 52.055 17.3726 52.0204 13.7271C51.993 10.7223 51.9287 7.71526 52.0267 4.71445C52.1216 1.76776 50.6416 0.130101 47.8832 0.13716C39.9278 0.158336 31.8383 -0.457351 24.0484 0.759915C8.88594 3.13013 -1.25296 17.0965 0.125094 32.219C1.44354 46.6976 14.0405 58.0647 29.152 58.2836C30.1983 58.2992 33.1175 58.293 33.1175 58.293C47.8235 41.852 50.52 41.165 50.52 41.165Z" fill="#3772FF"/>
</svg>
